<?xml version="1.0" encoding="UTF-8"?>
<svg width="77px" height="74px" viewBox="0 0 77 74" version="1.1" xmlns="http://www.w3.org/2000/svg" xmlns:xlink="http://www.w3.org/1999/xlink">
    <!-- Generator: Sketch 48.2 (47327) - http://www.bohemiancoding.com/sketch -->
    <title>K8-Logo</title>
    <desc>Created with Sketch.</desc>
    <defs></defs>
    <g id="Kubinstaller-1" stroke="none" stroke-width="1" fill="none" fill-rule="evenodd" transform="translate(-48.000000, -52.000000)">
        <g id="K8-Logo" transform="translate(48.000000, 52.000000)">
            <path d="M38.2060547,0.0880307467 C37.5264658,0.121942817 36.860613,0.288853671 36.2475586,0.578971449 L9.52246094,13.2283126 C8.12126393,13.891185 7.10352819,15.1448382 6.75732422,16.6344253 L0.1640625,45.0480417 C-0.143528552,46.3706575 0.106751121,47.7592761 0.857910156,48.897694 C0.948062832,49.0354441 1.04502119,49.1687782 1.1484375,49.2972182 L19.6464844,72.0802526 C20.6164174,73.2744704 22.0870208,73.9698279 23.6420898,73.9695278 L53.3066406,73.9627562 C54.8611281,73.9638785 56.3316277,73.269816 57.3022461,72.0768668 L75.793457,49.2904466 C76.763909,48.0956302 77.1275067,46.5315469 76.78125,45.0412701 L70.1777344,16.6276537 C69.8315304,15.1380666 68.8137947,13.8844134 67.4125977,13.221541 L40.684082,0.578971449 C39.9129519,0.214026297 39.060876,0.0452151064 38.2060547,0.0880307467 Z" id="path3055" fill="#326CE5"></path>
            <path d="M38.4708691,9.75755766 C37.5874516,9.7576465 36.8711547,10.54587 36.8712597,11.5181726 C36.8712608,11.533095 36.8743441,11.5473544 36.8746722,11.562188 C36.8733706,11.6943002 36.8669284,11.8534598 36.8712597,11.9684837 C36.8923275,12.5292802 37.0157331,12.95849 37.0900097,13.4751638 C37.2245716,14.5810098 37.3373252,15.4976889 37.2677441,16.3497063 C37.2000748,16.6709941 36.9611791,16.9648283 36.7482128,17.1690694 L36.7106152,17.8394574 C35.7506505,17.918243 34.7842644,18.0625127 33.8190136,18.2796111 C29.6655406,19.2137858 26.0894736,21.3331209 23.3668652,24.1946001 C23.1902005,24.0752109 22.8811275,23.8555718 22.789223,23.7883044 C22.5036262,23.8265092 22.2149812,23.9137999 21.8390277,23.6968878 C21.1231781,23.2195575 20.4711981,22.5606758 19.6822894,21.766983 C19.3208072,21.3873196 19.0590356,21.0257901 18.629555,20.6598271 C18.5320231,20.5767184 18.3831791,20.4643121 18.2740862,20.3788058 C17.9383181,20.1136225 17.5422909,19.9753249 17.1598284,19.9623527 C16.6680905,19.945674 16.19471,20.1361227 15.8849261,20.5210093 C15.3342,21.2052526 15.5105223,22.2510763 16.2779925,22.8572099 C16.28578,22.8633531 16.2940728,22.868129 16.3019183,22.8741389 C16.4073798,22.958824 16.5365233,23.0673331 16.6334612,23.1382312 C17.0892127,23.4715616 17.50553,23.642195 17.9596331,23.9068073 C18.9163362,24.4920693 19.7094548,24.9773543 20.3385394,25.5624625 C20.5841978,25.8218601 20.6271341,26.2789428 20.6598284,26.4766279 L21.1725237,26.9303249 C18.4279309,31.021851 17.1577109,36.0757129 17.9083691,41.2251638 L17.2384472,41.4181543 C17.0618831,41.6440125 16.8123867,41.9993999 16.55143,42.1054713 C15.7283689,42.3622729 14.80206,42.4565747 13.6837542,42.5727114 C13.1587203,42.6159575 12.7057033,42.5901496 12.1490862,42.6946001 C12.0265775,42.7175889 11.8558825,42.7616411 11.7218402,42.7927883 C11.7171808,42.7937634 11.7128277,42.7951285 11.7081683,42.7961686 C11.700862,42.797848 11.6912633,42.8013584 11.6842425,42.8029402 C10.7414147,43.0286012 10.1357397,43.8870457 10.3307269,44.7328451 C10.52576,45.5788428 11.4466953,46.093315 12.39518,45.890788 C12.4020269,45.8892386 12.4119691,45.8889786 12.4191058,45.8874076 C12.4298136,45.8849806 12.4392406,45.8798342 12.4498675,45.8772556 C12.5820855,45.848505 12.7477798,45.8165171 12.8634417,45.7858391 C13.410682,45.6406961 13.8070133,45.4274364 14.2989886,45.2407256 C15.3574039,44.8646832 16.2340216,44.5505407 17.0880511,44.4281341 C17.4447427,44.4004605 17.8205475,44.6461426 18.0074847,44.7497849 L18.7047503,44.631282 C20.3093012,49.5591424 23.6719241,53.5421626 27.929848,56.0414211 L27.6393206,56.7321238 C27.7440384,57.0003245 27.8595373,57.3632041 27.7815322,57.6280677 C27.4710516,58.4256209 26.9392386,59.2674408 26.3336566,60.2059525 C26.0404386,60.6395427 25.7403486,60.9760303 25.4757464,61.472241 C25.4124292,61.5909758 25.3317892,61.7733679 25.2706683,61.8988515 C24.8595452,62.7702053 25.1611139,63.7737927 25.9508441,64.1504071 C26.7455355,64.5293868 27.731958,64.1296763 28.1588519,63.2565565 C28.1595081,63.2553213 28.1616628,63.2544112 28.1622644,63.2531761 C28.1627019,63.252201 28.1618269,63.2507383 28.1622644,63.2497957 C28.2230692,63.1260055 28.309213,62.96329 28.3605066,62.8468858 C28.5871458,62.3325673 28.6625577,61.8918134 28.8219323,61.3943784 C29.245172,60.3412447 29.4777087,59.2362405 30.0603395,58.547696 C30.2198827,58.3591498 30.4799906,58.2866374 30.7496667,58.2151142 L31.1119714,57.565041 C34.8239664,58.9764366 38.9789498,59.3551757 43.1295495,58.4216478 C44.0764056,58.2086871 44.9905039,57.9330691 45.8741784,57.6022847 C45.9760044,57.781199 46.1652395,58.1251278 46.2159753,58.2117284 C46.4900242,58.3000495 46.7891484,58.3456586 47.0328698,58.7026691 C47.4687719,59.4403917 47.7668745,60.3131344 48.1300378,61.3672921 C48.2894387,61.8647183 48.368215,62.3054918 48.5948816,62.8197994 C48.6465437,62.9370238 48.7322566,63.1020243 48.7931237,63.2260951 C49.2191197,64.1020514 50.2086681,64.5031282 51.0045495,64.1233316 C51.7941823,63.7465167 52.0960836,62.7430203 51.6847253,61.871776 C51.6235967,61.7462967 51.5395519,61.563897 51.4762292,61.4451654 C51.2116008,60.9489689 50.9115589,60.6158367 50.6183191,60.1822628 C50.0126867,59.2437824 49.5103853,58.4641518 49.199862,57.6666149 C49.0700219,57.2552735 49.2217677,56.9994513 49.3229089,56.7321347 C49.2623392,56.6633602 49.1327266,56.2749068 49.0563073,56.0922189 C53.4813355,53.5040434 56.7452123,49.372489 58.277987,44.6008206 C58.4849683,44.6330447 58.844718,44.6960953 58.9615808,44.7193235 C59.2021555,44.5621467 59.4233555,44.3570681 59.8570886,44.3909011 C60.7111236,44.5132633 61.5877161,44.8275044 62.6461511,45.2034927 C63.1381362,45.3901785 63.5344511,45.6068772 64.081698,45.7519919 C64.1973609,45.7826635 64.363052,45.8112786 64.4952722,45.8400227 C64.5059034,45.8426013 64.5153206,45.8477585 64.5260339,45.8501746 C64.5331761,45.8517565 64.5431128,45.8520057 64.5499597,45.853555 C65.4984991,46.0558307 66.4195984,45.5416596 66.6144128,44.6956121 C66.8091812,43.8497629 66.2037862,42.9911191 65.2608972,42.7657073 C65.1237486,42.7348147 64.9292448,42.6823484 64.7960534,42.6573618 C64.2394309,42.5529405 63.7864216,42.5786921 63.2613855,42.535473 C62.1430742,42.4193938 61.2167839,42.3249912 60.3937097,42.0682329 C60.0581187,41.9392714 59.8193783,41.5437062 59.7032745,41.3809159 L59.0572784,41.194697 C59.3922131,38.7943646 59.3019011,36.2962502 58.7223175,33.7967285 C58.1373373,31.2739342 57.103527,28.9665936 55.7247589,26.9337161 C55.8904675,26.7844929 56.2034047,26.5099864 56.2921417,26.4292322 C56.3180811,26.1449151 56.2957948,25.8468175 56.592923,25.5319957 C57.2219758,24.9468551 58.0151578,24.4616524 58.9718292,23.8763405 C59.4259181,23.6117044 59.8456852,23.4411187 60.3014191,23.1077644 C60.4044777,23.0323819 60.545205,22.9130035 60.6534698,22.8267432 C61.420777,22.2204058 61.5974395,21.1746449 61.0465362,20.4905426 C60.495633,19.8064402 59.4281012,19.7420017 58.6607941,20.3483391 C58.5515766,20.4340241 58.4033767,20.545801 58.3053253,20.6293603 C57.8758644,20.9953472 57.6106355,21.3568345 57.249173,21.7365162 C56.4603069,22.5302502 55.8082591,23.1924386 55.0924347,23.6698069 C54.7822461,23.8486918 54.3279078,23.7867962 54.1217261,23.7747666 L53.5133277,24.2047629 C50.0440839,20.6011287 45.3206305,18.2971728 40.2345409,17.8496148 C40.2203156,17.6384796 40.2016792,17.2568379 40.1969433,17.141983 C39.988725,16.9446153 39.7371942,16.7761153 39.6739941,16.3497063 C39.604413,15.4976889 39.7205845,14.5810098 39.8551464,13.4751638 C39.929423,12.95849 40.0528286,12.5292802 40.0738964,11.9684837 C40.078687,11.8410011 40.070998,11.6560141 40.0704839,11.5181726 C40.0703789,10.54587 39.354292,9.75746881 38.4708745,9.75755766 L38.4708691,9.75755766 Z M36.4679394,22.0480042 L35.9928417,30.3601382 L35.958662,30.3770672 C35.9267967,31.1206805 35.3089789,31.7144574 34.5504589,31.7144574 C34.2397453,31.7144574 33.9529498,31.6156148 33.7198925,31.4469793 L33.7062206,31.4537509 L26.8258495,26.6222172 C28.9404675,24.562444 31.6452303,23.0402716 34.762373,22.3391828 C35.3317781,22.2111152 35.9009295,22.1160886 36.4679394,22.0480042 Z M40.4772167,22.0480042 C44.1165025,22.4913888 47.4821397,24.1237768 50.0612011,26.625603 L43.2252636,31.4266645 L43.2013378,31.4165126 C42.5945855,31.8554951 41.7397127,31.7465753 41.2667675,31.1591919 C41.0730294,30.9185608 40.9713762,30.635624 40.9591503,30.3499862 L40.9523144,30.3466058 L40.4772167,22.0480042 Z M24.3307323,29.726994 L30.6129589,35.2932458 L30.606123,35.3271038 C31.1731634,35.8154139 31.2567817,36.662781 30.7838573,37.250237 C30.5901323,37.4908779 30.3308173,37.6522791 30.052412,37.7276345 L30.0455761,37.7547209 L21.9928417,40.0570635 C21.582983,36.3445854 22.4662769,32.7357614 24.3307323,29.726994 Z M52.5665722,29.7303743 C53.4999894,31.2290705 54.2068198,32.9029635 54.6276073,34.7176547 C55.0433483,36.510587 55.1476844,38.3003133 54.9762402,40.0299717 L46.8824902,37.7208575 L46.8756542,37.6869995 C46.1508808,37.4907814 45.7054588,36.7604697 45.8741894,36.0279585 C45.9433177,35.7278826 46.1041197,35.4740268 46.3219433,35.2864688 L46.3185308,35.2695398 L52.5665777,29.7303743 L52.5665722,29.7303743 Z M37.1822948,35.7232367 L39.7560253,35.7232367 L41.3556347,37.7039285 L40.7814159,40.175561 L38.4708691,41.2759454 L36.1534862,40.1721752 L35.5792675,37.7005427 L37.1822948,35.7232367 Z M45.4332714,42.5016042 C45.5426431,42.4961328 45.651538,42.5058947 45.7579784,42.5253048 L45.7716503,42.5083758 L54.1012402,43.9033246 C52.8822011,47.2959591 50.5495266,50.2350571 47.4327831,52.2019153 L44.1993847,44.465367 L44.2096331,44.4518238 C43.9126133,43.7681646 44.2098519,42.9664542 44.8932269,42.6404219 C45.0681886,42.5569514 45.2509805,42.5107312 45.4332659,42.5016042 L45.4332714,42.5016042 Z M31.4435253,42.5354622 C32.0791844,42.5442924 32.6493431,42.9813312 32.7970409,43.6223033 C32.8661867,43.922375 32.8325331,44.2196935 32.7184277,44.482296 L32.7423534,44.5127682 L29.5431347,52.1714432 C26.5520391,50.2701307 24.1696208,47.4233052 22.8951855,43.9304164 L31.152998,42.5422392 L31.1666698,42.5591682 C31.2590381,42.5423302 31.3527167,42.5342054 31.4435253,42.5354676 L31.4435253,42.5354622 Z M38.4195995,45.8907934 C38.6410238,45.8827325 38.8657019,45.927737 39.0792675,46.0296111 C39.3592139,46.1631502 39.5754723,46.3734121 39.7115917,46.6255115 L39.7423534,46.6255115 L43.8131542,53.9117487 C43.2848413,54.0871851 42.7417069,54.237119 42.1862011,54.3620599 C39.0728931,55.0622862 35.969477,54.8501207 33.1593456,53.9015913 L37.2198925,46.6288973 L37.2267284,46.6288973 C37.4703798,46.1777021 37.9324673,45.908522 38.4195995,45.8907934 Z" id="path3059" stroke="#FFFFFF" stroke-width="0.25" fill="#FFFFFF"></path>
        </g>
    </g>
</svg>