<?xml version="1.0" encoding="UTF-8"?>
<svg width="135px" height="133px" viewBox="0 0 135 133" version="1.1" xmlns="http://www.w3.org/2000/svg" xmlns:xlink="http://www.w3.org/1999/xlink">
    <!-- Generator: Sketch 48.2 (47327) - http://www.bohemiancoding.com/sketch -->
    <title>Logo/Kubinstaller</title>
    <desc>Created with Sketch.</desc>
    <defs>
        <linearGradient x1="50%" y1="-8.06646416e-15%" x2="50%" y2="98.6228476%" id="linearGradient-1">
            <stop stop-color="#61A5F4" offset="0%"></stop>
            <stop stop-color="#326CE5" offset="67.2592474%"></stop>
            <stop stop-color="#234CA2" offset="100%"></stop>
        </linearGradient>
        <path d="M78.1170228,3.19824191 L106.273402,16.7498033 C114.50086,20.7096485 120.477087,28.2008995 122.509997,37.1025127 L129.45768,67.5247097 C131.491309,76.4294695 129.357336,85.7756477 123.660353,92.9153099 L104.185434,117.321972 C98.4929731,124.455967 89.8625361,128.610669 80.735762,128.610669 L49.4774739,128.610669 C40.3506998,128.610669 31.7202629,124.455967 26.0278016,117.321972 L6.55288317,92.9153099 C0.855900175,85.7756477 -1.27807284,76.4294695 0.755555734,67.5247097 L7.70323889,37.1025127 C9.73614888,28.2008995 15.7123756,20.7096485 23.9398338,16.7498033 L52.0962131,3.19824191 C60.3184347,-0.759082982 69.8948012,-0.759082982 78.1170228,3.19824191 Z" id="path-2"></path>
    </defs>
    <g id="Splash" stroke="none" stroke-width="1" fill="none" fill-rule="evenodd" transform="translate(-195.000000, 0.000000)">
        <g id="Logo/Kubinstaller" transform="translate(197.000000, 2.000000)">
            <g id="Group-6">
                <g id="Oval">
                    <mask id="mask-3" fill="white">
                        <use xlink:href="#path-2"></use>
                    </mask>
                    <use id="Mask" stroke="#FAFAFA" stroke-width="4" fill="url(#linearGradient-1)" xlink:href="#path-2"></use>
                </g>
            </g>
            <path d="M64.4970656,15 C62.9451924,15.000158 61.686895,16.402127 61.6870795,18.131507 C61.6870814,18.1580487 61.6924977,18.183411 61.6930741,18.2097947 C61.6907877,18.4447752 61.6794709,18.7278635 61.6870795,18.9324501 C61.7240887,19.9299073 61.9408717,20.6933186 62.0713511,21.6122974 C62.3077319,23.5792037 62.5058028,25.2096493 62.3835718,26.7250848 C62.2646993,27.2965415 61.8450382,27.8191678 61.4709267,28.18244 L61.40488,29.3748215 C59.7185387,29.514953 58.020917,29.7715574 56.3252897,30.1576982 C49.0290075,31.8192623 42.7470371,35.5888047 37.964312,40.6783572 C37.6539704,40.4660064 37.1110311,40.0753465 36.9495852,39.9557018 C36.4478859,40.0236545 35.9408318,40.1789137 35.2804054,39.7931043 C34.0228938,38.9441036 32.87758,37.7721877 31.4917275,36.3604909 C30.8567225,35.685205 30.3968762,35.0421727 29.6424204,34.3912548 C29.471089,34.2434341 29.2096191,34.0435033 29.017979,33.8914181 C28.4281452,33.4197514 27.732456,33.1737692 27.0605955,33.1506962 C26.1967741,33.1210307 25.3652007,33.4597711 24.8210125,34.1443475 C23.8535684,35.3613725 24.1633086,37.2215204 25.5115006,38.2996164 C25.5251807,38.3105429 25.5397484,38.3190375 25.5535303,38.329727 C25.7387915,38.4803515 25.9656539,38.6733506 26.135942,38.799453 C26.9365469,39.3923292 27.6678791,39.6958252 28.4655886,40.1664763 C30.1462005,41.2074489 31.5394483,42.0705983 32.6445423,43.1112973 C33.0760832,43.5726733 33.151508,44.3856607 33.2089412,44.737272 L34.1095778,45.5442373 C29.2882334,52.8216052 27.0568758,61.8106258 28.3755345,70.9696651 L27.1987027,71.3129265 C26.8885379,71.7146477 26.450255,72.3467554 25.9918401,72.5354186 C24.5459932,72.9921773 22.9187739,73.1599066 20.9542795,73.3664724 C20.0319681,73.4433918 19.2361666,73.3974888 18.258374,73.583269 C18.0431665,73.6241578 17.7433117,73.702511 17.5078435,73.7579108 C17.4996585,73.7596451 17.4920115,73.7620733 17.4838265,73.7639233 C17.4709919,73.7669102 17.45413,73.773154 17.4417968,73.7759675 C15.7855593,74.1773381 14.7215881,75.704205 15.0641163,77.2085809 C15.4067251,78.7133095 17.0245048,79.6283725 18.6906796,79.268149 C18.7027073,79.2653933 18.7201724,79.2649308 18.7327093,79.2621365 C18.7515194,79.2578198 18.7680795,79.2486662 18.7867475,79.2440797 C19.0190108,79.1929427 19.3100812,79.1360476 19.513261,79.0814823 C20.4745817,78.8233247 21.170805,78.4440115 22.0350434,78.1119195 C23.89433,77.443074 25.4342582,76.8843264 26.9345064,76.6666086 C27.5610958,76.6173871 28.221261,77.0543682 28.549648,77.2387109 L29.7745137,77.0279363 C32.5931806,85.7928452 38.5001999,92.8772197 45.9799679,97.3225104 L45.4696072,98.5510247 C45.6535619,99.0280582 45.8564554,99.6734917 45.719426,100.14459 C45.174014,101.563153 44.239794,103.060451 43.175986,104.729729 C42.6608988,105.500931 42.1337396,106.099423 41.6689208,106.982005 C41.5576934,107.193192 41.4160355,107.517603 41.3086662,107.740793 C40.5864585,109.290621 41.1162153,111.075646 42.5035107,111.745509 C43.8995215,112.419579 45.6323405,111.708636 46.3822523,110.155667 C46.3834051,110.15347 46.3871902,110.151851 46.3882469,110.149654 C46.3890155,110.14792 46.3874784,110.145318 46.3882469,110.143642 C46.495061,109.923463 46.6463871,109.63405 46.7364931,109.427009 C47.1346234,108.512219 47.2670972,107.728275 47.547066,106.843515 C48.2905585,104.970365 48.6990489,103.004956 49.722539,101.780281 C50.0028036,101.444924 50.4597276,101.315951 50.9334595,101.188736 L51.5699094,100.032488 C58.0906604,102.542858 65.389596,103.2165 72.6808308,101.556086 C74.3441447,101.177305 75.9499139,100.687079 77.5022386,100.098731 C77.6811132,100.416956 78.013537,101.028683 78.102663,101.182714 C78.5840766,101.339806 79.1095392,101.420928 79.5376773,102.055923 C80.3034134,103.368069 80.8270815,104.920367 81.4650396,106.795338 C81.7450545,107.680082 81.8834383,108.464062 82.2816167,109.378832 C82.3723702,109.587332 82.5229393,109.880809 82.6298629,110.101487 C83.3781973,111.659501 85.1165075,112.372874 86.5146087,111.697351 C87.9017331,111.027132 88.432074,109.242269 87.7094532,107.692635 C87.6020704,107.469453 87.4544313,107.145028 87.3431943,106.933847 C86.8783294,106.05129 86.3512548,105.458767 85.8361291,104.687593 C84.7722328,103.018371 83.8898549,101.631686 83.3443679,100.213152 C83.1162816,99.4815216 83.3828489,99.026505 83.5605207,98.551044 C83.4541197,98.4287186 83.226433,97.7377984 83.0921897,97.4128616 C90.8655047,92.8094192 96.59906,85.4608553 99.2916396,76.9737565 C99.6552374,77.0310717 100.287199,77.1432163 100.492488,77.184531 C100.915099,76.9049693 101.303674,76.5402075 102.0656,76.6003845 C103.565858,76.8180232 105.105742,77.3769462 106.965063,78.0456954 C107.829319,78.377743 108.525513,78.7631728 109.486846,79.0212802 C109.690027,79.075834 109.981092,79.1267301 110.213359,79.1778556 C110.232035,79.1824421 110.248578,79.191615 110.267397,79.1959123 C110.279944,79.1987259 110.297399,79.1991691 110.309427,79.2019248 C111.975698,79.5617013 113.593766,78.647174 113.93599,77.1423568 C114.278134,75.6378922 113.214655,74.1106707 111.55831,73.7097434 C111.317385,73.6547965 110.975706,73.5614776 110.741733,73.5170352 C109.763931,73.331307 108.968142,73.3771099 108.045827,73.3002386 C106.081323,73.093775 104.454137,72.9258665 103.008267,72.4691848 C102.418744,72.2398082 101.999356,71.5362386 101.7954,71.2466927 L100.660598,70.9154756 C101.248967,66.6461389 101.090319,62.2028832 100.072182,57.7571242 C99.0445645,53.2699714 97.2285007,49.1660342 94.8064598,45.5502691 C95.0975552,45.2848541 95.6472826,44.796605 95.8031643,44.6529719 C95.8487313,44.147273 95.8095817,43.6170636 96.3315378,43.0571077 C97.4365761,42.0163509 98.8299354,41.1533481 100.510492,40.1122868 C101.308176,39.6415933 102.045568,39.3381821 102.846142,38.7452635 C103.027182,38.6111849 103.274394,38.3988533 103.464579,38.2454268 C104.812485,37.1669686 105.122823,35.3069325 104.155068,34.090158 C103.187312,32.8733835 101.312011,32.7587703 99.9641053,33.8372285 C99.7722462,33.9896318 99.5119079,34.1884429 99.339664,34.3370652 C98.5852427,34.9880256 98.119323,35.6309827 97.4843526,36.3063014 C96.098575,37.7180714 94.9531421,38.8958688 93.6956747,39.7449369 C93.1507757,40.0631096 92.3526531,39.9530193 91.9904599,39.9316229 L90.9217045,40.6964333 C84.8273873,34.2868513 76.5298374,30.1889343 67.5952555,29.3928878 C67.5702663,29.0173537 67.5375283,28.338549 67.5292088,28.1342629 C67.1634379,27.7832162 66.7215813,27.4835146 66.6105595,26.7250848 C66.4883284,25.2096493 66.6924036,23.5792037 66.9287844,21.6122974 C67.0592638,20.6933186 67.2760468,19.9299073 67.313056,18.9324501 C67.3214715,18.705704 67.3079644,18.376678 67.3070614,18.131507 C67.3068769,16.402127 66.0489484,14.999842 64.4970752,15 L64.4970656,15 Z M60.9072581,36.8647541 L60.0811354,51.5640234 L60.0217022,51.5939608 C59.9662932,52.9089748 58.8920019,53.9590164 57.5730509,53.9590164 C57.0327672,53.9590164 56.5340734,53.7842221 56.1288221,53.4860053 L56.1050488,53.4979802 L44.141129,44.9538428 C47.8181283,41.3113172 52.5212999,38.6194907 57.9415373,37.3796776 C58.9316463,37.1532013 59.9213141,36.9851552 60.9072581,36.8647541 Z M68.0927419,36.8647541 C74.4592731,37.6512417 80.347086,40.5468158 84.858871,44.984623 L72.9001484,53.500876 L72.8582929,53.4828682 C71.7968462,54.2615473 70.30134,54.0683424 69.4739744,53.0264258 C69.1350508,52.5995879 68.9572198,52.097707 68.9358319,51.5910348 L68.9238732,51.5850386 L68.0927419,36.8647541 Z M39.5892749,50.3811475 L50.4964386,60.2348478 L50.4845701,60.2947851 C51.4690623,61.1592198 51.6142399,62.659278 50.7931514,63.6992265 C50.4568073,64.1252229 50.0065861,64.4109447 49.5232205,64.5443432 L49.511352,64.592293 L35.5302434,68.6680328 C34.8186491,62.0959897 36.3522187,55.7074412 39.5892749,50.3811475 Z M89.2219259,50.3811475 C90.8794914,53.0420752 92.1346835,56.0140641 92.8819195,59.2360397 C93.6201937,62.4193822 93.8054741,65.5970326 93.5010229,68.6680328 L79.1281127,64.5682117 L79.1159734,64.508097 C77.8289181,64.1597127 77.0379361,62.8630478 77.3375685,61.5624778 C77.4603268,61.0296944 77.7458796,60.5789747 78.1326915,60.2459663 L78.1266316,60.215909 L89.2219356,50.3811475 L89.2219259,50.3811475 Z M62.0800367,61.1147541 L66.5266749,61.1147541 L69.2903226,64.6598985 L68.2982439,69.083754 L64.3063085,71.0532787 L60.3025625,69.0776939 L59.3104839,64.6538385 L62.0800367,61.1147541 Z M76.8292717,73.0436406 C77.0212544,73.0340001 77.2124,73.0512003 77.3992374,73.0854002 L77.4232359,73.0555719 L92.0443548,75.5134223 C89.9045478,81.4911245 85.809951,86.6697112 80.3390602,90.1352459 L74.6634022,76.5037212 L74.6813915,76.4798586 C74.1600258,75.2752752 74.6817755,73.8626899 75.8813192,73.2882325 C76.1884335,73.1411605 76.5092923,73.0597221 76.8292621,73.0436406 L76.8292717,73.0436406 Z M52.0646131,73.4387412 C53.1881239,73.4544057 54.1958646,74.2297042 54.4569167,75.3667765 C54.57913,75.8990979 54.5196482,76.4265353 54.3179697,76.8923871 L54.3602579,76.9464441 L48.7057222,90.5327869 C43.4190386,87.159895 39.2081764,82.1096811 36.9556452,75.9133632 L51.5511136,73.4507635 L51.5752782,73.4807952 C51.7385368,73.4509249 51.9041112,73.4365116 52.0646131,73.4387508 L52.0646131,73.4387412 Z M64.5822208,79.4032799 C64.9721642,79.3888544 65.367838,79.4693928 65.7439419,79.6517027 C66.236947,79.8906791 66.6177931,80.2669556 66.8575088,80.7181031 L66.9116823,80.7181031 L74.0806452,93.7572721 C73.1502493,94.0712262 72.193752,94.3395422 71.2154677,94.5631315 C65.7327162,95.8162295 60.2673849,95.4365464 55.3185484,93.7390948 L62.4694534,80.7241622 L62.481492,80.7241622 C62.910579,79.9167206 63.7243472,79.4350062 64.5822208,79.4032799 Z" id="path3059-copy" stroke="#FFFFFF" stroke-width="0.25" fill="#FFFFFF"></path>
        </g>
    </g>
</svg>