<?xml version="1.0" encoding="UTF-8"?>
<svg width="71px" height="68px" viewBox="0 0 71 68" version="1.1" xmlns="http://www.w3.org/2000/svg" xmlns:xlink="http://www.w3.org/1999/xlink">
    <!-- Generator: Sketch 48.2 (47327) - http://www.bohemiancoding.com/sketch -->
    <title>K8-Logo</title>
    <desc>Created with Sketch.</desc>
    <defs></defs>
    <g id="Kubinstaller-1" stroke="none" stroke-width="1" fill="none" fill-rule="evenodd" transform="translate(-48.000000, -60.000000)">
        <g id="K8-Logo" transform="translate(48.000000, 60.000000)">
            <path d="M35.2289595,0.0808931186 C34.6023256,0.112055561 33.9883574,0.265433104 33.4230735,0.532027818 L8.78045099,12.1557467 C7.48843817,12.7648727 6.55000652,13.9168784 6.23077947,15.2856881 L0.151278409,41.3954978 C-0.132344509,42.6108745 0.0984328517,43.8869023 0.791060014,44.9330161 C0.874187806,45.0595973 0.963590964,45.1821205 1.05894886,45.3001464 L18.1155895,66.2359078 C19.0099433,67.3332971 20.3659542,67.9722743 21.7998491,67.9719985 L49.1528764,67.965776 C50.586235,67.9668072 51.9421502,67.3290201 52.837136,66.2327965 L69.8874734,45.2939239 C70.7823057,44.1959845 71.1175711,42.7587188 70.7982955,41.3892753 L64.7093395,15.2794656 C64.3901124,13.9106558 63.4516808,12.7586501 62.159668,12.1495242 L37.5138938,0.532027818 C36.8028518,0.196672813 36.0171714,0.0415490167 35.2289595,0.0808931186 Z" id="path3055" fill="#326CE5"></path>
            <path d="M35.473139,8.96640433 C34.6585592,8.96648597 33.9980777,9.69079947 33.9981745,10.5842667 C33.9981755,10.5979792 34.0010186,10.6110824 34.0013211,10.6247133 C34.000121,10.7461137 33.9941808,10.8923684 33.9981745,10.9980661 C34.0176007,11.5133926 34.1313903,11.9078016 34.1998791,12.382583 C34.3239556,13.3987658 34.4279232,14.2411195 34.363764,15.0240544 C34.3013677,15.3192919 34.0810872,15.5893017 33.8847157,15.7769827 L33.8500477,16.3930149 C32.9648855,16.4654125 32.0738022,16.5979846 31.1837658,16.7974805 C27.3539401,17.6559113 24.0565276,19.6034084 21.5460705,22.2328758 C21.3831719,22.1231668 21.0981825,21.9213362 21.0134394,21.8595229 C20.7500969,21.89463 20.4839437,21.9748432 20.1372852,21.7755185 C19.4772162,21.3368907 18.8760398,20.7314318 18.1486045,20.0020925 C17.8152897,19.6532127 17.573916,19.3209963 17.1779014,18.9847059 C17.0879694,18.9083359 16.9507236,18.8050436 16.8501315,18.7264702 C16.5405271,18.4827883 16.1753592,18.355704 15.8226989,18.3437835 C15.3692782,18.3284572 14.9327845,18.5034641 14.6471396,18.8571437 C14.1393273,19.4859078 14.3019102,20.4469349 15.0095775,21.0039226 C15.0167582,21.0095677 15.0244048,21.0139564 15.0316389,21.019479 C15.1288827,21.0972977 15.247963,21.1970088 15.3373474,21.2621584 C15.7575857,21.568462 16.1414627,21.7252603 16.5601812,21.9684175 C17.442336,22.5062258 18.1736532,22.9521635 18.7537181,23.4898304 C18.9802343,23.7281958 19.0198249,24.1482177 19.0499717,24.3298743 L19.5227167,24.746785 C16.9919883,28.5065657 15.8207464,33.1506551 16.5129117,37.882583 L15.8951916,38.0599256 C15.7323857,38.2674709 15.5023306,38.5940432 15.2617082,38.6915141 C14.5027817,38.9274941 13.6486527,39.0141498 12.6174877,39.1208699 C12.1333655,39.1606096 11.7156485,39.1368942 11.2024042,39.2328758 C11.0894416,39.2540006 10.9320475,39.294481 10.80845,39.3231027 C10.8041537,39.3239988 10.8001398,39.3252532 10.7958435,39.326209 C10.7891065,39.3277522 10.7802558,39.330978 10.773782,39.3324316 C9.90442134,39.5397957 9.34594179,40.3286365 9.52573517,41.1058576 C9.70557091,41.8832609 10.554745,42.3560192 11.4293218,42.1699133 C11.4356352,42.1684895 11.4448026,42.1682506 11.4513833,42.166807 C11.4612567,42.1645768 11.4699491,42.1598477 11.479748,42.1574781 C11.6016632,42.1310587 11.7544463,42.1016644 11.8610956,42.0734737 C12.3656938,41.9400992 12.7311421,41.7441307 13.1847817,41.5725587 C14.1607231,41.2270061 14.9690329,40.9383347 15.7565146,40.8258529 C16.0854121,40.8004231 16.4319334,41.0261851 16.6043041,41.121424 L17.2472373,41.0125294 C18.7267583,45.5408336 21.8273586,49.2009062 25.7534962,51.497522 L25.4856073,52.1322219 C25.5821653,52.3786766 25.6886643,52.7121335 25.6167375,52.9555217 C25.3304501,53.6884084 24.8400771,54.4619726 24.2816833,55.3243888 C24.0113135,55.722823 23.7346071,56.0320279 23.4906233,56.4880052 C23.4322399,56.5971129 23.3578836,56.7647164 23.3015253,56.8800257 C22.9224377,57.6807292 23.2005076,58.6029446 23.9287004,58.9490228 C24.6614678,59.2972744 25.5710262,58.9299728 25.9646556,58.1276465 C25.9652607,58.1265115 25.9672475,58.1256752 25.9678022,58.1245402 C25.9682056,58.1236442 25.9673988,58.1223001 25.9678022,58.1214339 C26.023869,58.0076808 26.1033003,57.8581584 26.150597,57.7511923 C26.359576,57.2785754 26.4291116,56.8735582 26.5760675,56.4164559 C26.9663275,55.4487113 27.1807444,54.4333021 27.7179754,53.8005855 C27.8650866,53.6273269 28.1049264,53.5606938 28.3535888,53.4949698 L28.6876619,52.8976052 C32.1104106,54.1945633 35.9416291,54.5425939 39.7688054,53.6847575 C40.6418805,53.4890638 41.4847504,53.2357932 42.2995671,52.9318292 C42.3934586,53.0962369 42.5679481,53.4122796 42.6147305,53.4918585 C42.8674249,53.5730184 43.1432408,53.6149295 43.3679709,53.9429932 C43.7699065,54.6209004 44.0447804,55.4228803 44.3796453,56.3915657 C44.5266253,56.8486601 44.5992632,57.2536952 44.8082674,57.7263021 C44.855904,57.8340219 44.9349379,57.985644 44.9910622,58.099655 C45.3838636,58.9045878 46.2963044,59.2731448 47.030169,58.9241425 C47.758272,58.5778802 48.0366485,57.6557484 47.6573441,56.8551455 C47.6009788,56.7398402 47.5234829,56.5722296 47.4650945,56.463125 C47.2210864,56.0071606 46.9444244,55.7010391 46.6740345,55.3026199 C46.1155942,54.4402325 45.6524332,53.7238152 45.3661065,52.9909434 C45.2463838,52.612954 45.3863052,52.3778741 45.4795654,52.1322319 C45.4237154,52.0690337 45.3042024,51.7120765 45.2337379,51.5442011 C49.3139587,49.1658777 52.3235075,45.3693143 53.7368452,40.9845379 C53.927698,41.0141492 54.2594153,41.0720876 54.3671719,41.0934324 C54.5890005,40.9489996 54.7929641,40.760549 55.1928999,40.7916389 C55.9803867,40.9040798 56.7886733,41.1928419 57.7646328,41.5383446 C58.2182815,41.7098938 58.5837146,41.9090223 59.0883189,42.042371 C59.1949692,42.0705556 59.3477493,42.0968506 59.4696666,42.1232641 C59.4794694,42.1256336 59.4881528,42.1303727 59.4980313,42.1325929 C59.5046169,42.1340465 59.5137793,42.1342755 59.5200927,42.1356992 C60.3947199,42.3215742 61.2440453,41.8490927 61.4236793,41.0716436 C61.603271,40.2943767 61.0450497,39.5053527 60.1756325,39.2982175 C60.0491708,39.2698298 59.8698232,39.2216175 59.7470103,39.1986567 C59.233761,39.1027021 58.8160511,39.1263657 58.3319269,39.0866509 C57.3007567,38.9799835 56.4466449,38.8932352 55.6877063,38.6572951 C55.3782653,38.5387899 55.158128,38.1752976 55.0510713,38.0257065 L54.4554126,37.8545865 C54.7642485,35.6488755 54.6809737,33.353311 54.1465525,31.0564532 C53.6071552,28.7382098 52.6539015,26.6179509 51.3825699,24.7499013 C51.5353661,24.6127772 51.8239186,24.3605281 51.9057411,24.2863215 C51.9296592,24.0250571 51.9091095,23.7511296 52.1830848,23.4618339 C52.7631205,22.9241371 53.4944962,22.4782751 54.3766217,21.940421 C54.7953271,21.6972419 55.182385,21.5404874 55.6026072,21.2341619 C55.6976352,21.1648915 55.8273968,21.0551924 55.9272254,20.9759261 C56.6347425,20.4187513 56.797639,19.4577818 56.2896633,18.8291472 C55.7816875,18.2005126 54.7973401,18.1412989 54.0898231,18.6984737 C53.9891161,18.7772114 53.8524642,18.8799252 53.7620532,18.9567095 C53.3660568,19.2930217 53.121495,19.6251992 52.7881985,19.974096 C52.0608024,20.7034731 51.4595636,21.3119706 50.7995177,21.7506333 C50.5134996,21.9150141 50.0945643,21.858137 49.9044487,21.8470828 L49.343458,22.2422146 C46.1445449,18.9307669 41.7891528,16.8136183 37.0993819,16.4023487 C37.0862651,16.2083327 37.0690808,15.8576348 37.0647139,15.7520925 C36.8727205,15.5707276 36.6407895,15.4158897 36.582514,15.0240544 C36.5183548,14.2411195 36.625474,13.3987658 36.7495506,12.382583 C36.8180394,11.9078016 36.931829,11.5133926 36.9512551,10.9980661 C36.9556725,10.8809199 36.9485825,10.7109319 36.9481085,10.5842667 C36.9480117,9.69079947 36.2877238,8.96632269 35.473144,8.96640433 L35.473139,8.96640433 Z M33.6262818,20.2603282 L33.1882047,27.8985054 L33.1566884,27.9140617 C33.1273061,28.5973821 32.5576299,29.1430149 31.8582154,29.1430149 C31.5717132,29.1430149 31.3072654,29.0521866 31.0923684,28.8972242 L31.0797619,28.9034468 L24.7355236,24.4636591 C26.6853661,22.5708945 29.1793682,21.1721415 32.0536166,20.5278977 C32.5786526,20.4102139 33.1034545,20.3228922 33.6262818,20.2603282 Z M37.3231479,20.2603282 C40.678853,20.6677627 43.7822327,22.1677949 46.1603283,24.4667704 L39.8570612,28.8785566 L39.8349998,28.8692278 C39.2755269,29.2726171 38.4872675,29.1725287 38.0511752,28.632771 C37.8725336,28.4116505 37.7788015,28.1516545 37.7675282,27.8891765 L37.7612249,27.8860702 L37.3231479,20.2603282 Z M22.4348311,27.3166972 L28.2275335,32.4316313 L28.2212303,32.462744 C28.7440858,32.9114614 28.8211883,33.6901231 28.3851152,34.2299475 C28.2064857,34.451077 27.967377,34.5993916 27.7106656,34.6686371 L27.7043624,34.6935273 L20.2791138,36.8091935 C19.9011921,33.3977271 20.7156579,30.0815105 22.4348311,27.3166972 Z M48.4704757,27.3198035 C49.331159,28.6969837 49.9829118,30.2351556 50.3709107,31.9027098 C50.7542562,33.5502691 50.8504622,35.1948825 50.6923773,36.7842983 L43.2293091,34.6624096 L43.2230058,34.6312969 C42.5547083,34.4509883 42.1439944,33.7798911 42.2995772,33.1067727 C42.3633189,32.8310272 42.5115909,32.5977544 42.7124412,32.4254037 L42.7092946,32.4098474 L48.4704807,27.3198035 L48.4704757,27.3198035 Z M34.2849732,32.8267581 L36.6581532,32.8267581 L38.1331177,34.6468532 L37.6036433,36.9180831 L35.473139,37.9292471 L33.3363315,36.9149718 L32.806857,34.643742 L34.2849732,32.8267581 Z M41.8930165,39.0555282 C41.9938657,39.0505004 42.0942753,39.0594708 42.1924217,39.0773071 L42.2050282,39.0617507 L49.8855591,40.3435955 C48.7615101,43.4611516 46.6106024,46.1619444 43.7367221,47.9693276 L40.7552768,40.860067 L40.7647266,40.8476219 C40.4908512,40.2193945 40.7649284,39.4826877 41.3950534,39.1830904 C41.5563817,39.1063878 41.72493,39.0639152 41.8930114,39.0555282 L41.8930165,39.0555282 Z M28.9933805,39.0866409 C29.5795077,39.0947551 30.1052385,39.4963584 30.2414274,40.0853598 C30.3051852,40.3611013 30.2741539,40.634313 30.1689398,40.8756234 L30.1910012,40.9036248 L27.2410722,47.9413261 C24.483049,46.1941742 22.2862737,43.5781724 21.111145,40.3684907 L28.7254916,39.0928685 L28.7380982,39.1084248 C28.8232689,39.0929521 28.9096479,39.085486 28.9933805,39.0866459 L28.9933805,39.0866409 Z M35.4258645,42.1699182 C35.6300349,42.1625109 35.8372056,42.2038665 36.0341298,42.2974805 C36.2922622,42.4201921 36.4916693,42.6134057 36.617182,42.8450647 L36.6455467,42.8450647 L40.3991422,49.5405259 C39.9119965,49.7017376 39.4111843,49.8395148 38.8989646,49.9543253 C36.0282521,50.5977765 33.1666606,50.4028136 30.5755005,49.531192 L34.3196411,42.8481759 L34.3259444,42.8481759 C34.55061,42.4335641 34.9766907,42.1862094 35.4258645,42.1699182 Z" id="path3059" stroke="#FFFFFF" stroke-width="0.25" fill="#FFFFFF"></path>
        </g>
    </g>
</svg>